<?xml version="1.0" encoding="UTF-8" standalone="no"?>
<!DOCTYPE svg PUBLIC "-//W3C//DTD SVG 1.1//EN" "http://www.w3.org/Graphics/SVG/1.1/DTD/svg11.dtd">
<svg width="100%" height="100%" viewBox="0 0 20 20" version="1.1" xmlns="http://www.w3.org/2000/svg" xmlns:xlink="http://www.w3.org/1999/xlink" xml:space="preserve" xmlns:serif="http://www.serif.com/" style="fill-rule:evenodd;clip-rule:evenodd;stroke-linejoin:round;stroke-miterlimit:2;">
    <path d="M18,9.5L18,8.5C18,8.422 17.982,8.346 17.947,8.276L15.947,4.276C15.862,4.107 15.689,4 15.5,4L3.5,4C3.311,4 3.137,4.107 3.053,4.276L1.053,8.276C1.018,8.345 1,8.422 1,8.5L1,9.5C1,10.316 1.393,11.042 2,11.499L2,18L1.5,18C1.224,18 1,18.224 1,18.5C1,18.776 1.224,19 1.5,19L17.5,19C17.776,19 18,18.776 18,18.5C18,18.224 17.776,18 17.5,18L17,18L17,11.499C17.607,11.042 18,10.317 18,9.5ZM11.5,11C10.673,11 10,10.327 10,9.5L10,9L13,9L13,9.5C13,10.327 12.327,11 11.5,11ZM2,9.5L2,9L5,9L5,9.5C5,10.327 4.327,11 3.5,11C2.673,11 2,10.327 2,9.5ZM9,5L9,8L6.14,8L6.89,5L9,5ZM12.11,5L12.86,8L10,8L10,5L12.11,5ZM6,9L9,9L9,9.5C9,10.327 8.327,11 7.5,11C6.673,11 6,10.327 6,9.5L6,9ZM14,9L17,9L17,9.5C17,10.327 16.327,11 15.5,11C14.673,11 14,10.327 14,9.5L14,9ZM16.691,8L13.89,8L13.14,5L15.191,5L16.691,8ZM3.809,5L5.86,5L5.11,8L2.309,8L3.809,5ZM3,11.95C3.162,11.983 3.329,12 3.5,12C4.317,12 5.044,11.606 5.5,10.998C5.956,11.606 6.683,12 7.5,12C8.317,12 9.044,11.606 9.5,10.998C9.861,11.478 10.39,11.825 11,11.949L11,17.999L3,17.999L3,11.949L3,11.95ZM16,18L12,18L12,11.95C12.61,11.826 13.139,11.479 13.5,10.999C13.956,11.607 14.683,12.001 15.5,12.001C15.671,12.001 15.838,11.984 16,11.951L16,18.001L16,18Z" style="fill-rule:nonzero;"/>
    <path d="M14,14.5C14,14.776 13.776,15 13.5,15C13.224,15 13,14.776 13,14.5C13,14.224 13.224,14 13.5,14C13.776,14 14,14.224 14,14.5Z" style="fill-rule:nonzero;"/>
    <g id="Bookmark" transform="matrix(0.105843,3.53462e-33,1.30461e-33,0.0955874,4.50769,-31.6853)">
        <path d="M14.7,465C10.4,465 6,467.2 2.6,470.8C2.3,471.2 2.1,471.7 2.1,472.1L2.1,510.1C2.1,510.9 3,511.4 3.6,511C8.4,508.1 13.8,505.5 16.9,505.5C20.9,505.5 23.9,508.2 25.9,512.4C26.1,512.8 26.4,513 26.8,513L27.5,513C27.9,513 28.2,512.8 28.4,512.4C30.4,508.2 33.3,505.5 37.4,505.5C40.5,505.5 45.9,508.1 50.7,511C51.4,511.4 52.2,510.9 52.2,510.1L52.2,472.1C52.2,471.6 52,471.1 51.7,470.8C48.3,467.1 43.9,465 39.6,465C34.9,465 30.3,467.6 27.2,472C23.9,467.7 19.4,465 14.7,465ZM14.7,466.5C19.4,466.5 23.9,469.5 26.1,474L26.1,509C23.3,505 19.7,503.8 16.9,503.8C13.2,503.8 9,505.9 4.1,509L4.1,472.5C4.1,472 4.3,471.5 4.7,471.1C7.4,468.4 11,466.5 14.7,466.5ZM50.1,509C45.2,505.9 41,503.8 37.3,503.8C32.9,503.8 30,506.3 28.1,509L28.1,474C29.9,469.9 34.8,466.5 39.5,466.5C43.2,466.5 46.7,468.4 49.5,471.1C49.9,471.5 50.1,472 50.1,472.5L50.1,509Z" style="fill-rule:nonzero;"/>
    </g>
</svg>
